<svg xmlns="http://www.w3.org/2000/svg" width="250" height="250" viewBox="0 0 250 250" fill="none">
<g id="logo" transform="translate(-12.34 23.1)">
<path d="M 231.98,103.11 L 198.71,83.75 L 198.61,95.63 L 158.49,95.69 L 140.12,106.68 C 136.91,118.98 125.66,126.13 111.31,122.42 C 106.89,125.39 104.32,129.53 103.01,133.84 C 109.09,137.61 116.68,138.95 125.22,137.41 C 139.68,134.63 151.36,123.71 155.06,110.87 L 155.38,110.87 H 198.33 V 122.74 L 231.98,103.11 Z" fill="url(#paint0_linear_1020_1130)"/>
<path d="M 208.42,146.51 L 199.61,155.31 L 177.79,132.87 C 181.75,126.28 183.57,116.63 183.57,116.63 L 168.16,116.7 C 166.17,124.68 162.96,129.93 158.14,135.46 L 188.44,166.7 L 180.02,174.88 L 216.49,183.81 L 208.42,146.51 Z" fill="url(#paint1_linear_1020_1130)"/>
<path d="M 216.5,20 L 180.02,30.26 L 187.98,38.44 L 152.95,72.84 C 141.71,83.86 129.63,90.71 113.91,98.12 C 96.82,106.39 84.86,118.92 81.32,133.73 C 73.16,124.73 69.11,111.18 70.02,99.08 C 72.31,75.16 91.67,52.61 120.22,52.4 C 133.78,52.29 145.23,57.81 153.29,66.36 L 163.79,55.66 L 161.71,53.37 L 165.86,40.62 L 151.62,31.41 L 142.41,42.43 C 137.91,40.73 135.84,39.4 130.69,38.66 L 127.6,24.42 H 112.69 L 108.99,38.66 C 104.48,39.3 102.19,39.94 97.89,41.9 L 88.68,31.41 L 74.33,40.62 L 78.63,52.61 C 75.1,55.58 73.77,56.91 70.13,61.11 L 57.11,57.48 L 48.62,71.41 L 59.01,81.34 C 57.32,85.75 56.68,87.93 56.15,92.23 L 42.7,95.31 C 42.27,101.36 42.27,105.77 42.7,111.39 L 56.15,114.47 C 56.79,118.77 57.22,120.95 58.81,125.25 L 48.62,134.78 L 56.9,147.99 L 69.59,144.36 C 72.91,148.21 74.44,149.75 78.31,152.93 L 73.9,166.14 L 87.84,173.91 L 97.78,164.17 C 101.98,166.14 103.78,166.77 109.41,168.1 L 112.17,180.2 H 127.5 L 129.78,167.57 C 134.82,166.72 137.39,166.19 142.53,164.49 L 151.52,174.22 L 165.56,166.03 L 161.71,152.72 L 165.13,149.08 L 154.42,138.16 C 144.49,147.89 133.78,152.82 119.09,152.72 C 109.62,152.51 101.98,149.75 96.14,145.9 C 93.16,129.84 103.67,118.45 124.37,108.72 C 136.05,103.19 146.66,97.96 165.34,82.84 C 167.32,85.61 167.74,87.04 168.38,90.01 H 183.57 C 182.52,82.74 180.02,77.31 176.6,71.89 L 199.39,49.34 L 208.09,58.97 L 216.5,20 Z" fill="url(#paint2_linear_1020_1130)"/>
<path d="M 141.71,74.65 C 134.2,68.59 125.81,66.78 118.22,66.99 C 98.1,67.84 84.17,85.29 84.6,102.95 C 84.6,106.48 85.24,109.66 86.08,112.95 C 90.69,107.01 94.33,104.04 99.15,100.4 C 101.44,89.48 111.94,80.92 127.71,83.9 C 132.96,80.92 137.78,78.16 141.71,74.65 Z" fill="url(#paint3_linear_1020_1130)"/>
<path d="M 96.14,146.01 C 100.24,158.31 109.72,170.84 127.5,178.1 L 128.65,172.96 L 129.68,167.68 C 134.82,166.83 137.39,166.19 142.53,164.49 L 151.52,174.22 L 165.56,165.93 L 161.71,152.62 L 165.13,148.98 L 154.42,138.06 C 144.49,147.79 133.78,152.72 119.09,152.62 C 109.62,152.51 101.98,149.85 96.14,146.01 Z" fill="url(#paint4_linear_1020_1130)"/>
</g>
<defs>
<linearGradient id="paint0_linear_1020_1130" x1="167.493" y1="83.7461" x2="167.493" y2="138.431" gradientUnits="userSpaceOnUse">
<stop stop-color="#00E8E8"/>
<stop offset="1" stop-color="#118AD6"/>
</linearGradient>
<linearGradient id="paint1_linear_1020_1130" x1="187.312" y1="116.627" x2="187.312" y2="183.807" gradientUnits="userSpaceOnUse">
<stop stop-color="#00D1E8"/>
<stop offset="1" stop-color="#118AD6"/>
</linearGradient>
<linearGradient id="paint2_linear_1020_1130" x1="129.591" y1="20" x2="129.591" y2="180.195" gradientUnits="userSpaceOnUse">
<stop stop-color="#00F0F0"/>
<stop offset="1" stop-color="#0BA6CB"/>
</linearGradient>
<linearGradient id="paint3_linear_1020_1130" x1="113.218" y1="66.9336" x2="113.218" y2="112.949" gradientUnits="userSpaceOnUse">
<stop stop-color="#00C9DB"/>
<stop offset="1" stop-color="#00B1D4"/>
</linearGradient>
<linearGradient id="paint4_linear_1020_1130" x1="130.648" y1="138.061" x2="130.648" y2="178.098" gradientUnits="userSpaceOnUse">
<stop stop-color="#00A3D9"/>
<stop offset="1" stop-color="#2272D1"/>
</linearGradient>
</defs>
</svg>
